<?xml version="1.0" ?><!DOCTYPE svg  PUBLIC '-//W3C//DTD SVG 1.1//EN'  'http://www.w3.org/Graphics/SVG/1.1/DTD/svg11.dtd'><svg height="512px" id="形状_2_1_" style="enable-background:new 0 0 512 512;" version="1.1" viewBox="0 0 512 512" width="512px" xml:space="preserve" xmlns="http://www.w3.org/2000/svg" xmlns:xlink="http://www.w3.org/1999/xlink"><g id="形状_2"><g><path d="M94.202,239.51H76.158l-1.615,16.085h16.51    c10.096,0,10.848,1.922,10.848,8.481v2.776H88.556c-13.112,0-20.441,4.584-20.441,17.427c0,10.89,6.281,18.762,18.085,18.762    c4.323,0,10.88-0.66,18.231-4.725l0.694,4.064h16.091v-38.176C121.215,246.502,116.357,239.51,94.202,239.51z M101.901,286.774    c-2.876,1.319-5.206,2.601-9.147,2.601c-3.672,0-5.335-1.827-5.335-5.346c0-3.546,1.79-4.3,5.868-4.3h8.615V286.774z     M486.261,239.51h-20.928l-17.692,28.01v-56.972l-19.304,3.214v88.498h19.304v-29.492l17.692,29.492h20.928l-19.319-32.185    L486.261,239.51z M332.882,238.646c-22.693,0-28.215,12.72-28.215,25.836v12.661c0,13.111,5.521,25.829,28.215,25.829    c22.679,0,28.102-12.718,28.102-25.829v-12.661C360.983,251.366,355.561,238.646,332.882,238.646z M341.66,279.009    c0,4.467-2.294,8.054-8.843,8.054c-6.567,0-8.842-3.587-8.842-8.054v-16.267c0-4.452,2.274-8.031,8.842-8.031    c6.549,0,8.843,3.579,8.843,8.031V279.009z M69.822,239.51H55.23l0.024-8.051c0-4.193,0.4-6.441,6.425-6.441h8.05v-16.085H56.845    c-15.473,0-20.919,7.804-20.919,20.923v9.654h-9.65v16.085h9.65v46.665H55.23v-46.665h12.884L69.822,239.51z M127.653,265.248    v11.266c0,15.729,8.235,26.614,28.965,26.614c4.829,0,10.541-0.516,19.313-2.483v-15.683c-10.014,1.722-12.888,2.101-17.706,2.101    c-8.655,0-11.269-1.911-11.269-9.252v-13.886c0-7.333,2.614-9.244,11.269-9.244c4.818,0,7.692,0.379,17.706,2.093v-15.681    c-8.772-1.968-14.485-2.489-19.313-2.489C135.889,238.604,127.653,249.509,127.653,265.248z M276.593,238.604    c-4.914,0-10.313,0.784-14.484,2.334v-30.39l-19.3,3.214v86.883c10.503,1.615,16.092,2.453,25.602,2.453    c26.354,0,30.702-11.087,30.702-26.288v-15.676C299.112,247.248,295.9,238.604,276.593,238.604z M279.809,276.942    c0,6.032-1.293,10.358-10.746,10.358c-2.62,0-4.193,0-6.954-0.269v-29.721c2.878-1.312,5.714-2.601,9.653-2.601    c6.568,0,8.047,3.579,8.047,8.031V276.942z M394.707,238.646c-22.693,0-28.218,12.72-28.218,25.836v12.661    c0,13.111,5.524,25.829,28.218,25.829c22.672,0,28.098-12.718,28.098-25.829v-12.661    C422.805,251.366,417.379,238.646,394.707,238.646z M403.504,279.009c0,4.467-2.316,8.054-8.865,8.054    c-6.556,0-8.831-3.587-8.831-8.054v-16.267c0-4.452,2.275-8.031,8.831-8.031c6.549,0,8.865,3.579,8.865,8.031V279.009z     M209,238.604c-21.238,0-27.358,11.272-27.358,25.029v12.881c0,15.729,8.243,26.614,28.973,26.614    c9.462,0,14.482-0.516,24.12-2.483v-15.683c-9.993,1.722-14.739,2.101-22.52,2.101c-8.651,0-11.267-1.911-11.267-9.252v-1.297    h35.402v-12.881C236.351,249.743,230.244,238.604,209,238.604z M217.046,263.633h-16.098v-2.499c0-4.451,1.494-8.046,8.052-8.046    c6.55,0,8.046,3.595,8.046,8.046V263.633z" style="fill-rule:evenodd;clip-rule:evenodd;fill:#004A9A;"/></g></g></svg>