<?xml version="1.0" ?><!DOCTYPE svg  PUBLIC '-//W3C//DTD SVG 1.1//EN'  'http://www.w3.org/Graphics/SVG/1.1/DTD/svg11.dtd'><svg height="2048px" style="shape-rendering:geometricPrecision; text-rendering:geometricPrecision; image-rendering:optimizeQuality; fill-rule:evenodd; clip-rule:evenodd" viewBox="0 0 2048 2048" width="2048px" xml:space="preserve" xmlns="http://www.w3.org/2000/svg" xmlns:xlink="http://www.w3.org/1999/xlink"><defs><style type="text/css">
   <![CDATA[
    .fil4 {fill:none}
    .fil0 {fill:#176BEF}
    .fil3 {fill:#179C52}
    .fil2 {fill:#F7B529}
    .fil1 {fill:#FF3E30}
   ]]>
  </style></defs><g id="Layer_x0020_1"><path class="fil0" d="M633.636 950.045l-179.231 0 0 53.1863 127.113 0c-6.27993,74.5784 -68.328,106.386 -126.898,106.386 -74.9327,-0.00236221 -140.322,-58.9595 -140.322,-141.595 0,-80.5028 62.3327,-142.498 140.486,-142.498 60.2977,0 95.8288,38.439 95.8288,38.439l37.2378 -38.5654c0,0 -47.7957,-53.2099 -134.971,-53.2099 -111.005,-0.0011811 -196.88,93.6887 -196.88,194.883 0,99.1595 80.7792,195.852 199.71,195.852 104.601,-0.0011811 181.167,-71.6552 181.167,-177.617 0,-22.3536 -3.24567,-35.2736 -3.24567,-35.2736l0.00472441 0.0129921z"/><path class="fil1" d="M781.186 960.857c36.1654,0 70.4363,29.2406 70.4363,76.3536 0,46.1162 -34.1256,76.1894 -70.6028,76.1894 -40.0796,-0.0011811 -71.7001,-32.1012 -71.7001,-76.5532 0,-43.5012 31.226,-75.9898 71.8654,-75.9898l0.0011811 0zm-0.732284 -49.3276c-73.5438,0 -126.248,57.4949 -126.248,124.553 0,68.0457 51.1205,126.613 127.112,126.613 68.7934,-0.00236221 125.151,-52.5792 125.151,-125.152 0,-83.1792 -65.5571,-126.014 -126.014,-126.014z"/><path class="fil2" d="M1055.76 960.857c36.1713,0 70.441,29.2406 70.441,76.3536 0,46.1162 -34.128,76.1894 -70.6028,76.1894 -40.0784,-0.0011811 -71.6989,-32.1012 -71.6989,-76.5532 0,-43.5012 31.2284,-75.9898 71.8607,-75.9898l0 0zm-0.729922 -49.3276c-73.5402,0 -126.25,57.4949 -126.25,124.553 0.0011811,68.0457 51.1241,126.613 127.117,126.613 68.7886,-0.00236221 125.147,-52.5792 125.147,-125.152 0,-83.1792 -65.5571,-126.014 -126.014,-126.014z"/><path class="fil0" d="M1329.23 960.89c33.0957,0 67.0772,28.2603 67.0772,76.5213 0,49.05 -33.9118,76.0867 -67.8095,76.0867 -35.9859,-0.0011811 -69.4725,-29.2205 -69.4725,-75.6225 0.0011811,-48.2138 34.7788,-76.9855 70.2048,-76.9855l0 0zm-4.88859 -49.2296c-67.5012,0 -120.566,59.1237 -120.566,125.484 0,75.5894 61.5166,125.718 119.402,125.718 35.791,-0.00236221 54.8256,-14.2087 68.8784,-30.5162l0.00236221 24.763c0,43.3252 -26.3138,69.2741 -66.0225,69.2741 -38.354,-0.0011811 -57.5989,-28.5225 -64.2815,-44.7095l-48.2646 20.1768c17.1213,36.2032 51.587,73.9607 112.947,73.9607 67.1162,0 118.271,-42.274 118.271,-130.935l0 -225.665 -52.6489 0 0 21.274c-16.1894,-17.4473 -38.3315,-28.8213 -67.7186,-28.8213 0.0011811,-0.0011811 0,-0.0011811 0.0011811,-0.00354331z"/><path class="fil1" d="M1681.01 959.661c22.9441,0 39.4583,12.1984 46.4752,26.8252l-112.456 47.002c-4.84961,-36.3886 29.628,-73.8272 65.9812,-73.8272zm-2.19449 -48.3012c-63.6756,0 -117.137,50.6634 -117.137,125.419 0.00236221,79.0997 59.5902,126.015 123.255,126.015 53.1331,0 85.7457,-29.0693 105.209,-55.1126l-43.4138 -28.8874c-11.2654,17.4839 -30.0981,34.5721 -61.5296,34.5721 -35.3008,-0.00236221 -51.5339,-19.3347 -61.5934,-38.0622l168.392 -69.8717 -8.74016 -20.478c-16.2744,-40.0985 -54.2185,-73.5863 -104.434,-73.5863l-0.00826772 -0.00826772z"/><polygon class="fil3" points="1481.4,1155.34 1536.71,1155.34 1536.71,785.174 1481.4,785.174 "/></g><rect class="fil4" height="2048" width="2048"/></svg>