<?xml version="1.0" ?><!DOCTYPE svg  PUBLIC '-//W3C//DTD SVG 1.1//EN'  'http://www.w3.org/Graphics/SVG/1.1/DTD/svg11.dtd'><svg enable-background="new 0 0 64 64" height="64px" id="Layer_1" version="1.1" viewBox="0 0 64 64" width="64px" xml:space="preserve" xmlns="http://www.w3.org/2000/svg" xmlns:xlink="http://www.w3.org/1999/xlink"><g><g><path d="M49.2,28.2h-3.4c-0.2,0-0.4,0.2-0.5,0.4l-1.4,8.8c0,0.2,0.1,0.3,0.3,0.3h1.8c0.2,0,0.3-0.1,0.3-0.3    l0.4-2.5c0-0.2,0.2-0.4,0.5-0.4h1.1c2.3,0,3.6-1.1,3.9-3.3c0.2-0.9,0-1.7-0.4-2.2C51.2,28.5,50.3,28.2,49.2,28.2 M49.6,31.5    c-0.2,1.2-1.1,1.2-2,1.2H47l0.4-2.3c0-0.1,0.1-0.2,0.3-0.2h0.2c0.6,0,1.2,0,1.5,0.4C49.6,30.7,49.6,31,49.6,31.5" fill="#139AD6"/></g><g><path d="M24.7,28.2h-3.4c-0.2,0-0.4,0.2-0.5,0.4l-1.4,8.8c0,0.2,0.1,0.3,0.3,0.3h1.6c0.2,0,0.4-0.2,0.5-0.4    l0.4-2.4c0-0.2,0.2-0.4,0.5-0.4h1.1c2.3,0,3.6-1.1,3.9-3.3c0.2-0.9,0-1.7-0.4-2.2C26.7,28.5,25.9,28.2,24.7,28.2 M25.1,31.5    c-0.2,1.2-1.1,1.2-2,1.2h-0.5l0.4-2.3c0-0.1,0.1-0.2,0.3-0.2h0.2c0.6,0,1.2,0,1.5,0.4C25.1,30.7,25.2,31,25.1,31.5" fill="#263B80"/></g><g><path d="M35,31.4h-1.6c-0.1,0-0.3,0.1-0.3,0.2L33,32.1l-0.1-0.2c-0.4-0.5-1.1-0.7-1.9-0.7c-1.8,0-3.4,1.4-3.7,3.3    c-0.2,1,0.1,1.9,0.6,2.5c0.5,0.6,1.2,0.8,2.1,0.8c1.5,0,2.3-0.9,2.3-0.9l-0.1,0.5c0,0.2,0.1,0.3,0.3,0.3h1.5    c0.2,0,0.4-0.2,0.5-0.4l0.9-5.6C35.3,31.6,35.1,31.4,35,31.4 M32.7,34.6c-0.2,0.9-0.9,1.6-1.9,1.6c-0.5,0-0.9-0.2-1.1-0.4    c-0.2-0.3-0.3-0.7-0.3-1.2c0.1-0.9,0.9-1.6,1.8-1.6c0.5,0,0.8,0.2,1.1,0.4C32.6,33.7,32.7,34.2,32.7,34.6" fill="#263B80"/></g><g><path d="M59.4,31.4h-1.6c-0.1,0-0.3,0.1-0.3,0.2l-0.1,0.5l-0.1-0.2c-0.4-0.5-1.1-0.7-1.9-0.7    c-1.8,0-3.4,1.4-3.7,3.3c-0.2,1,0.1,1.9,0.6,2.5c0.5,0.6,1.2,0.8,2.1,0.8c1.5,0,2.3-0.9,2.3-0.9l-0.1,0.5c0,0.2,0.1,0.3,0.3,0.3    h1.5c0.2,0,0.4-0.2,0.5-0.4l0.9-5.6C59.7,31.6,59.6,31.4,59.4,31.4 M57.1,34.6c-0.2,0.9-0.9,1.6-1.9,1.6c-0.5,0-0.9-0.2-1.1-0.4    c-0.2-0.3-0.3-0.7-0.3-1.2c0.1-0.9,0.9-1.6,1.8-1.6c0.5,0,0.8,0.2,1.1,0.4C57.1,33.7,57.2,34.2,57.1,34.6" fill="#139AD6"/></g><g><g><path d="M43.7,31.4h-1.7c-0.2,0-0.3,0.1-0.4,0.2L39.4,35l-1-3.2c-0.1-0.2-0.2-0.3-0.5-0.3h-1.6     c-0.2,0-0.3,0.2-0.3,0.4l1.8,5.3l-1.7,2.4c-0.1,0.2,0,0.5,0.2,0.5h1.6c0.2,0,0.3-0.1,0.4-0.2l5.5-7.9     C44.1,31.7,43.9,31.4,43.7,31.4" fill="#263B80"/></g><g><path d="M61.3,28.5l-1.4,9c0,0.2,0.1,0.3,0.3,0.3h1.4c0.2,0,0.4-0.2,0.5-0.4l1.4-8.8c0-0.2-0.1-0.3-0.3-0.3h-1.6     C61.5,28.2,61.4,28.3,61.3,28.5" fill="#139AD6"/></g><g><path d="M12,25.2C11.3,24.4,10,24,8.2,24h-5c-0.3,0-0.6,0.3-0.7,0.6L0.5,37.7c0,0.3,0.2,0.5,0.4,0.5H4l0.8-4.9     l0,0.2c0.1-0.3,0.4-0.6,0.7-0.6h1.5c2.9,0,5.1-1.2,5.8-4.5c0-0.1,0-0.2,0-0.3c-0.1,0-0.1,0,0,0C12.9,26.8,12.7,26,12,25.2" fill="#263B80"/></g></g><g><path d="M12.7,28.1L12.7,28.1c0,0.1,0,0.2,0,0.3c-0.7,3.4-2.9,4.5-5.8,4.5H5.4c-0.3,0-0.6,0.3-0.7,0.6l-1,6.1    c0,0.2,0.1,0.4,0.4,0.4h2.6c0.3,0,0.6-0.2,0.6-0.5l0-0.1l0.5-3.1l0-0.2c0-0.3,0.3-0.5,0.6-0.5h0.4c2.5,0,4.5-1,5-4    c0.2-1.2,0.1-2.3-0.5-3C13.2,28.4,13,28.2,12.7,28.1" fill="#139AD6"/></g><g><path d="M12,27.8c-0.1,0-0.2-0.1-0.3-0.1c-0.1,0-0.2,0-0.3-0.1c-0.4-0.1-0.8-0.1-1.3-0.1H6.2c-0.1,0-0.2,0-0.3,0.1    c-0.2,0.1-0.3,0.3-0.3,0.5l-0.8,5.2l0,0.2c0.1-0.3,0.4-0.6,0.7-0.6h1.5c2.9,0,5.1-1.2,5.8-4.5c0-0.1,0-0.2,0.1-0.3    c-0.2-0.1-0.3-0.2-0.5-0.2C12.1,27.8,12.1,27.8,12,27.8" fill="#232C65"/></g></g></svg>